<svg width="250" height="250" viewBox="0 0 250 250" fill="none" xmlns="http://www.w3.org/2000/svg">
<path d="M248.08 103.298C260.066 171.273 214.678 236.094 146.702 248.08C78.727 260.066 13.9055 214.678 1.91961 146.702C-10.0663 78.727 35.3222 13.9055 103.298 1.91961C171.273 -10.0663 236.094 35.3222 248.08 103.298Z" fill="#1AA36F"/>
<path fill-rule="evenodd" clip-rule="evenodd" d="M103.298 1.91961C171.273 -10.0663 236.094 35.3222 248.08 103.298C260.066 171.273 214.678 236.094 146.702 248.08C78.727 260.066 13.9055 214.678 1.91961 146.702C-10.0663 78.727 35.3222 13.9055 103.298 1.91961ZM97.5832 21.9647C47.4998 35.2312 14.1257 82.9065 18.8045 134.508L48.6994 129.237L51.8883 147.323L22.0111 152.591C35.3389 202.567 82.9466 235.855 134.477 231.198L129.69 204.05L147.775 200.861L152.56 227.997C202.496 214.696 235.78 167.174 231.215 115.702L208.572 119.695L205.383 101.61L228.044 97.614C214.804 47.5713 167.215 14.2016 115.671 18.7881L119.527 40.6612L101.442 43.8501L97.5832 21.9647Z" fill="#0A0A0B"/>
<path d="M94.6767 159.269C89.9156 159.269 85.7326 158.385 82.1278 156.616C78.591 154.78 75.8363 152.229 73.8639 148.964C71.9594 145.632 71.0072 141.721 71.0072 137.232V104.788C71.0072 100.231 71.9594 96.3202 73.8639 93.0555C75.8363 89.7907 78.591 87.2741 82.1278 85.5057C85.7326 83.6693 89.9156 82.7511 94.6767 82.7511C99.5058 82.7511 103.655 83.6693 107.124 85.5057C110.66 87.2741 113.415 89.7907 115.388 93.0555C117.36 96.3202 118.346 100.231 118.346 104.788H105.491C105.491 101.251 104.539 98.5648 102.635 96.7283C100.798 94.8919 98.1455 93.9737 94.6767 93.9737C91.2079 93.9737 88.5213 94.8919 86.6168 96.7283C84.7124 98.5648 83.7602 101.217 83.7602 104.686V137.232C83.7602 140.701 84.7124 143.387 86.6168 145.292C88.5213 147.128 91.2079 148.046 94.6767 148.046C98.1455 148.046 100.798 147.128 102.635 145.292C104.539 143.387 105.491 140.701 105.491 137.232H118.346C118.346 141.653 117.36 145.53 115.388 148.862C113.415 152.195 110.66 154.78 107.124 156.616C103.655 158.385 99.5058 159.269 94.6767 159.269Z" fill="#BEFF47"/>
<path d="M155.647 159.269C150.546 159.269 146.125 158.419 142.384 156.718C138.643 155.018 135.752 152.603 133.712 149.475C131.739 146.278 130.719 142.537 130.651 138.252H143.404C143.404 141.313 144.492 143.727 146.669 145.496C148.913 147.196 151.94 148.046 155.749 148.046C159.422 148.046 162.279 147.196 164.319 145.496C166.428 143.795 167.482 141.449 167.482 138.456C167.482 135.939 166.734 133.763 165.237 131.927C163.809 130.022 161.734 128.73 159.014 128.05L150.444 125.703C144.594 124.207 140.071 121.52 136.875 117.643C133.746 113.766 132.182 109.073 132.182 103.564C132.182 99.3469 133.134 95.6741 135.038 92.5453C136.943 89.4166 139.629 87.0021 143.098 85.3017C146.635 83.6013 150.784 82.7511 155.545 82.7511C162.755 82.7511 168.468 84.6215 172.685 88.3624C176.902 92.0352 179.045 97.0004 179.113 103.258H166.36C166.36 100.333 165.407 98.0546 163.503 96.4223C161.598 94.7219 158.912 93.8717 155.443 93.8717C152.11 93.8717 149.526 94.6538 147.689 96.2182C145.853 97.7826 144.935 99.9931 144.935 102.85C144.935 105.434 145.615 107.645 146.975 109.481C148.403 111.25 150.444 112.508 153.096 113.256L161.973 115.705C167.89 117.201 172.413 119.888 175.542 123.765C178.67 127.574 180.235 132.301 180.235 137.946C180.235 142.163 179.215 145.904 177.174 149.169C175.134 152.365 172.277 154.848 168.604 156.616C164.931 158.385 160.612 159.269 155.647 159.269Z" fill="#BEFF47"/>
</svg>
